<?xml version="1.0" encoding="UTF-8" standalone="no"?>
<!-- Generator: Adobe Illustrator 19.0.0, SVG Export Plug-In . SVG Version: 6.00 Build 0)  -->

<svg
   xmlns:dc="http://purl.org/dc/elements/1.1/"
   xmlns:cc="http://creativecommons.org/ns#"
   xmlns:rdf="http://www.w3.org/1999/02/22-rdf-syntax-ns#"
   xmlns:svg="http://www.w3.org/2000/svg"
   xmlns="http://www.w3.org/2000/svg"
   xmlns:sodipodi="http://sodipodi.sourceforge.net/DTD/sodipodi-0.dtd"
   xmlns:inkscape="http://www.inkscape.org/namespaces/inkscape"
   version="1.1"
   id="Layer_1"
   x="0px"
   y="0px"
   viewBox="0 0 128 128"
   xml:space="preserve"
   inkscape:version="0.48.4 r9939"
   width="100%"
   height="100%"
   sodipodi:docname="researchgate_icon.svg"><metadata
     id="metadata47"><rdf:RDF><cc:Work
         rdf:about=""><dc:format>image/svg+xml</dc:format><dc:type
           rdf:resource="http://purl.org/dc/dcmitype/StillImage" /><dc:title /></cc:Work></rdf:RDF></metadata><defs
     id="defs45" /><sodipodi:namedview
     pagecolor="#ffffff"
     bordercolor="#666666"
     borderopacity="1"
     objecttolerance="10"
     gridtolerance="10"
     guidetolerance="10"
     inkscape:pageopacity="0"
     inkscape:pageshadow="2"
     inkscape:window-width="1366"
     inkscape:window-height="747"
     id="namedview43"
     showgrid="false"
     inkscape:snap-bbox="false"
     inkscape:bbox-nodes="true"
     inkscape:zoom="3.4575336"
     inkscape:cx="31.630395"
     inkscape:cy="55.787183"
     inkscape:window-x="0"
     inkscape:window-y="21"
     inkscape:window-maximized="1"
     inkscape:current-layer="Layer_1"
     fit-margin-top="0"
     fit-margin-left="0"
     fit-margin-right="0"
     fit-margin-bottom="0" /><rect
     x="0.42125973"
     id="rect5"
     height="126.85025"
     width="127.4329"
     style="fill:#6d6e71;fill-opacity:1"
     y="0.6204201"
     ry="17.808529"
     rx="20.058165" /><path
     style="fill:#8cc63f"
     d="m 116.48713,64.092735 c 0.0838,12.213393 0.81863,24.993137 -0.94452,37.122285 0.0211,0.20969 -0.0211,0.4409 -0.10485,0.6506 -0.0838,0.25181 -0.23075,0.4409 -0.4615,0.5668 -1.38498,1.19634 -3.67235,0.90241 -5.43505,1.02832 -1.72057,0.1259 -3.94522,0.54574 -5.30913,-0.7765 -0.20969,-0.20969 -0.315,-0.6506 -0.10485,-0.90241 0,-0.0211 0,-0.0211 0,-0.0211 -0.31499,-0.12591 -0.58741,-0.39878 -0.67165,-0.86029 -0.25182,-1.238 -0.0838,-2.518127 0.0421,-3.798253 C 97.391002,103.62876 84.380506,103.4818 77.51837,98.529321 64.381968,89.065269 65.997692,64.40773 68.221889,50.683458 70.446543,36.980247 80.540128,25.900013 95.082563,25.354723 c 15.465907,-0.587411 19.893697,11.898398 19.243097,25.140104 -0.0627,0.944528 -0.56681,1.553 -1.21694,1.909659 -0.0421,0.04212 -0.10485,0.06273 -0.16803,0.104846 -0.0838,0.02106 -0.12591,0.06272 -0.20969,0.08378 -0.10485,0.04212 -0.18909,0.104846 -0.315,0.146967 -4.02901,1.028313 -9.29648,0.881346 -13.199581,-0.545747 -0.37772,-0.146968 -0.629533,-0.461505 -0.75544,-0.818622 -0.104846,-0.168028 -0.189089,-0.377719 -0.209691,-0.629533 -0.293935,-3.063878 -0.314996,-6.274724 -2.87479,-8.456799 -1.196341,-1.028313 -2.748884,-1.594664 -4.322945,-1.574061 -0.860285,0.02106 -1.594663,0.314995 -2.350103,0.608472 -5.771098,11.289926 -9.317542,43.460194 3.756136,48.916297 2.622977,-0.251813 4.973538,-1.888598 6.232603,-4.469911 1.699971,-3.504323 1.049374,-7.113949 0.965131,-10.7863 -0.566808,0.02106 -1.154219,0.02106 -1.741631,0.02106 -1.930719,0.02106 -3.861439,-0.08379 -5.750037,-0.566809 -0.440902,-0.104845 -0.650594,-0.503626 -0.608472,-0.881345 -1.384972,-1.53194 -1.238005,-8.897702 -1.175281,-9.715866 0.02106,-0.293934 0.125907,-0.524686 0.251813,-0.734378 -0.06272,-0.545748 0.356659,-1.17528 1.007253,-1.238005 7.218795,-0.944528 15.151365,-1.15422 22.432885,-0.629533 0.92347,0.08378 1.42709,0.671655 1.553,1.322248 0.48256,0.293477 0.86028,0.776042 0.86028,1.531482 z"
     id="path9"
     inkscape:connector-curvature="0" /><path
     style="fill:#ffffff"
     d="m 61.254449,84.783988 c -0.209692,4.574757 -2.014505,11.289926 2.266318,14.542436 0.335598,0.272873 0.503626,0.56635 0.545748,0.881346 0.377719,0.98619 -0.08378,2.24526 -1.468757,2.20359 -4.994599,-0.16803 -10.0098,-0.10484 -15.004399,-0.3356 -0.524686,-0.0211 -0.902406,-0.37771 -1.070434,-0.81862 -0.566809,-0.31499 -1.007253,-0.83922 -1.049374,-1.678903 -0.39878,-5.917608 0.168028,-12.695959 -1.448154,-18.4666 -1.993444,-7.197734 -8.037417,-8.603766 -14.43759,-9.380266 -0.125906,9.65314 -0.671654,19.26416 -1.741631,28.329889 -0.125906,1.1121 -0.986191,1.65785 -1.804813,1.61572 -0.293935,0.23076 -0.629533,0.39878 -1.091037,0.41985 -4.02901,0.10484 -8.519982,0.48256 -12.486267,-0.39878 -0.734379,-0.14697 -1.007253,-0.90241 -0.860286,-1.53194 0,-0.0421 -0.02106,-0.0627 -0.02106,-0.10485 0.587411,-23.230445 -0.251813,-46.943456 1.993444,-70.047995 0.04212,-0.482565 0.251813,-0.818621 0.545747,-1.049374 -0.188631,-1.195883 0.461505,-2.560252 2.014505,-2.644037 13.451398,-0.650594 35.884283,-2.119351 43.480797,12.108547 4.616879,8.603767 2.791005,22.558791 -5.77064,27.469605 2.665098,1.510878 4.742785,4.05007 5.98079,6.966981 1.57406,3.756136 1.637243,7.911052 1.427093,11.919001 z M 41.087882,52.005706 c 0.37772,-6.715169 -6.904257,-7.764543 -12.255056,-8.100141 0.335598,5.141108 0.587411,10.429641 0.692257,15.759837 2.098748,-0.125906 4.197037,-0.02106 6.211542,-0.860285 2.749341,-1.175738 5.183687,-3.693869 5.351257,-6.799411 z"
     id="path11"
     inkscape:connector-curvature="0" /><g
     id="g13"
     transform="matrix(0.457842,0,0,0.457842,1.6360952,1.9777683)" /><g
     id="g15"
     transform="matrix(0.457842,0,0,0.457842,1.6360952,1.9777683)" /><g
     id="g17"
     transform="matrix(0.457842,0,0,0.457842,1.6360952,1.9777683)" /><g
     id="g19"
     transform="matrix(0.457842,0,0,0.457842,1.6360952,1.9777683)" /><g
     id="g21"
     transform="matrix(0.457842,0,0,0.457842,1.6360952,1.9777683)" /><g
     id="g23"
     transform="matrix(0.457842,0,0,0.457842,1.6360952,1.9777683)" /><g
     id="g25"
     transform="matrix(0.457842,0,0,0.457842,1.6360952,1.9777683)" /><g
     id="g27"
     transform="matrix(0.457842,0,0,0.457842,1.6360952,1.9777683)" /><g
     id="g29"
     transform="matrix(0.457842,0,0,0.457842,1.6360952,1.9777683)" /><g
     id="g31"
     transform="matrix(0.457842,0,0,0.457842,1.6360952,1.9777683)" /><g
     id="g33"
     transform="matrix(0.457842,0,0,0.457842,1.6360952,1.9777683)" /><g
     id="g35"
     transform="matrix(0.457842,0,0,0.457842,1.6360952,1.9777683)" /><g
     id="g37"
     transform="matrix(0.457842,0,0,0.457842,1.6360952,1.9777683)" /><g
     id="g39"
     transform="matrix(0.457842,0,0,0.457842,1.6360952,1.9777683)" /><g
     id="g41"
     transform="matrix(0.457842,0,0,0.457842,1.6360952,1.9777683)" /></svg>